<svg width="64" height="64" viewBox="0 0 64 64" xmlns="http://www.w3.org/2000/svg">
  <defs>
    <linearGradient id="javaRed" x1="0%" y1="0%" x2="100%" y2="100%">
      <stop offset="0%" style="stop-color:#ed1c24;stop-opacity:1" />
      <stop offset="100%" style="stop-color:#f15a29;stop-opacity:1" />
    </linearGradient>
    <linearGradient id="javaBlue" x1="0%" y1="0%" x2="100%" y2="100%">
      <stop offset="0%" style="stop-color:#0074bd;stop-opacity:1" />
      <stop offset="100%" style="stop-color:#00a1e1;stop-opacity:1" />
    </linearGradient>
  </defs>
  
  <!-- Java Cup -->
  <g transform="translate(12, 8)">
    <!-- Cup Body -->
    <path d="M8 12 L8 36 Q8 40 12 40 L28 40 Q32 40 32 36 L32 12 Z" fill="url(#javaBlue)" stroke="#003d6b" stroke-width="1"/>
    
    <!-- Cup Handle -->
    <path d="M32 16 Q38 16 38 22 Q38 28 32 28" fill="none" stroke="url(#javaBlue)" stroke-width="3" stroke-linecap="round"/>
    
    <!-- Coffee -->
    <ellipse cx="20" cy="12" rx="12" ry="4" fill="url(#javaRed)"/>
    
    <!-- Steam -->
    <g fill="none" stroke="#cccccc" stroke-width="2" stroke-linecap="round">
      <path d="M16 6 Q18 4 16 2 Q14 0 16 -2" opacity="0.7"/>
      <path d="M20 6 Q22 4 20 2 Q18 0 20 -2" opacity="0.7"/>
      <path d="M24 6 Q26 4 24 2 Q22 0 24 -2" opacity="0.7"/>
    </g>
    
    <!-- Java Text -->
    <text x="20" y="50" text-anchor="middle" fill="#003d6b" font-family="Arial, sans-serif" font-size="8" font-weight="bold">JAVA</text>
  </g>
</svg>
