<svg width="64" height="64" viewBox="0 0 64 64" xmlns="http://www.w3.org/2000/svg">
  <defs>
    <linearGradient id="pythonBlue" x1="0%" y1="0%" x2="100%" y2="100%">
      <stop offset="0%" style="stop-color:#3776ab;stop-opacity:1" />
      <stop offset="100%" style="stop-color:#4b8bbe;stop-opacity:1" />
    </linearGradient>
    <linearGradient id="pythonYellow" x1="0%" y1="0%" x2="100%" y2="100%">
      <stop offset="0%" style="stop-color:#ffd43b;stop-opacity:1" />
      <stop offset="100%" style="stop-color:#ffe873;stop-opacity:1" />
    </linearGradient>
  </defs>
  
  <!-- Python Logo Shape -->
  <g transform="translate(8, 8)">
    <!-- Top part (Blue) -->
    <path d="M24 0 C30 0 36 2 36 8 L36 16 L20 16 L20 18 L36 18 C42 18 48 20 48 26 L48 34 C48 40 42 42 36 42 L32 42 L32 36 C32 30 26 24 20 24 L12 24 C6 24 0 18 0 12 L0 8 C0 2 6 0 12 0 L24 0 Z" fill="url(#pythonBlue)"/>
    
    <!-- Bottom part (Yellow) -->
    <path d="M24 48 C18 48 12 46 12 40 L12 32 L28 32 L28 30 L12 30 C6 30 0 28 0 22 L0 14 C0 8 6 6 12 6 L16 6 L16 12 C16 18 22 24 28 24 L36 24 C42 24 48 30 48 36 L48 40 C48 46 42 48 36 48 L24 48 Z" fill="url(#pythonYellow)"/>
  </g>
  
  <!-- Eyes -->
  <circle cx="24" cy="16" r="2" fill="#ffffff"/>
  <circle cx="40" cy="48" r="2" fill="#ffffff"/>
</svg>
